<svg height="320" width="320" shapeRendering="crispEdges" viewBox="0 0 25 25" style="width: 320px; height: 320px;"><path fill="#fff" d="M0,0 h25v25H0z"></path><path fill="#000" d="M0 0h7v1H0zM10 0h1v1H10zM12 0h2v1H12zM16 0h1v1H16zM18,0 h7v1H18zM0 1h1v1H0zM6 1h1v1H6zM8 1h1v1H8zM10 1h1v1H10zM13 1h4v1H13zM18 1h1v1H18zM24,1 h1v1H24zM0 2h1v1H0zM2 2h3v1H2zM6 2h1v1H6zM12 2h1v1H12zM14 2h1v1H14zM18 2h1v1H18zM20 2h3v1H20zM24,2 h1v1H24zM0 3h1v1H0zM2 3h3v1H2zM6 3h1v1H6zM8 3h3v1H8zM12 3h4v1H12zM18 3h1v1H18zM20 3h3v1H20zM24,3 h1v1H24zM0 4h1v1H0zM2 4h3v1H2zM6 4h1v1H6zM9 4h1v1H9zM13 4h1v1H13zM16 4h1v1H16zM18 4h1v1H18zM20 4h3v1H20zM24,4 h1v1H24zM0 5h1v1H0zM6 5h1v1H6zM8 5h2v1H8zM11 5h2v1H11zM14 5h2v1H14zM18 5h1v1H18zM24,5 h1v1H24zM0 6h7v1H0zM8 6h1v1H8zM10 6h1v1H10zM12 6h1v1H12zM14 6h1v1H14zM16 6h1v1H16zM18,6 h7v1H18zM9 7h3v1H9zM14 7h1v1H14zM16 7h1v1H16zM0 8h5v1H0zM6 8h4v1H6zM11 8h3v1H11zM17 8h1v1H17zM19 8h1v1H19zM21 8h1v1H21zM23 8h1v1H23zM0 9h2v1H0zM5 9h1v1H5zM7 9h2v1H7zM10 9h1v1H10zM12 9h2v1H12zM19 9h1v1H19zM23 9h1v1H23zM0 10h3v1H0zM5 10h4v1H5zM10 10h1v1H10zM12 10h4v1H12zM21 10h1v1H21zM23,10 h2v1H23zM2 11h1v1H2zM5 11h1v1H5zM7 11h2v1H7zM11 11h2v1H11zM14 11h6v1H14zM24,11 h1v1H24zM1 12h1v1H1zM3 12h2v1H3zM6 12h1v1H6zM8 12h4v1H8zM13 12h2v1H13zM17 12h4v1H17zM22,12 h3v1H22zM0 13h1v1H0zM2 13h2v1H2zM5 13h1v1H5zM7 13h1v1H7zM11 13h1v1H11zM14 13h1v1H14zM16 13h1v1H16zM19 13h1v1H19zM21 13h1v1H21zM23 13h1v1H23zM0 14h1v1H0zM2 14h1v1H2zM5 14h4v1H5zM13 14h3v1H13zM17 14h1v1H17zM19 14h3v1H19zM23,14 h2v1H23zM0 15h1v1H0zM2 15h1v1H2zM4 15h1v1H4zM7 15h4v1H7zM12 15h1v1H12zM14 15h1v1H14zM19 15h2v1H19zM24,15 h1v1H24zM0 16h1v1H0zM2 16h1v1H2zM4 16h1v1H4zM6 16h1v1H6zM8 16h13v1H8zM22 16h1v1H22zM8 17h2v1H8zM11 17h1v1H11zM16 17h1v1H16zM20 17h2v1H20zM0 18h7v1H0zM8 18h1v1H8zM14 18h1v1H14zM16 18h1v1H16zM18 18h1v1H18zM20 18h1v1H20zM22,18 h3v1H22zM0 19h1v1H0zM6 19h1v1H6zM10 19h1v1H10zM16 19h1v1H16zM20 19h2v1H20zM23 19h1v1H23zM0 20h1v1H0zM2 20h3v1H2zM6 20h1v1H6zM8 20h2v1H8zM13 20h8v1H13zM22 20h1v1H22zM0 21h1v1H0zM2 21h3v1H2zM6 21h1v1H6zM8 21h1v1H8zM11 21h1v1H11zM13 21h1v1H13zM17 21h2v1H17zM20,21 h5v1H20zM0 22h1v1H0zM2 22h3v1H2zM6 22h1v1H6zM8 22h2v1H8zM17 22h1v1H17zM21 22h2v1H21zM24,22 h1v1H24zM0 23h1v1H0zM6 23h1v1H6zM8 23h3v1H8zM12 23h1v1H12zM14 23h1v1H14zM16 23h1v1H16zM19 23h3v1H19zM24,23 h1v1H24zM0 24h7v1H0zM8 24h1v1H8zM10 24h1v1H10zM13 24h2v1H13zM17,24 h8v1H17z"></path></svg>